G04 #@! TF.GenerationSoftware,KiCad,Pcbnew,8.0.7-8.0.7-0~ubuntu22.04.1*
G04 #@! TF.CreationDate,2025-02-10T08:16:07+09:00*
G04 #@! TF.ProjectId,CoRE2025MainBoard_1,436f5245-3230-4323-954d-61696e426f61,rev?*
G04 #@! TF.SameCoordinates,Original*
G04 #@! TF.FileFunction,Paste,Top*
G04 #@! TF.FilePolarity,Positive*
%FSLAX46Y46*%
G04 Gerber Fmt 4.6, Leading zero omitted, Abs format (unit mm)*
G04 Created by KiCad (PCBNEW 8.0.7-8.0.7-0~ubuntu22.04.1) date 2025-02-10 08:16:07*
%MOMM*%
%LPD*%
G01*
G04 APERTURE LIST*
G04 Aperture macros list*
%AMRoundRect*
0 Rectangle with rounded corners*
0 $1 Rounding radius*
0 $2 $3 $4 $5 $6 $7 $8 $9 X,Y pos of 4 corners*
0 Add a 4 corners polygon primitive as box body*
4,1,4,$2,$3,$4,$5,$6,$7,$8,$9,$2,$3,0*
0 Add four circle primitives for the rounded corners*
1,1,$1+$1,$2,$3*
1,1,$1+$1,$4,$5*
1,1,$1+$1,$6,$7*
1,1,$1+$1,$8,$9*
0 Add four rect primitives between the rounded corners*
20,1,$1+$1,$2,$3,$4,$5,0*
20,1,$1+$1,$4,$5,$6,$7,0*
20,1,$1+$1,$6,$7,$8,$9,0*
20,1,$1+$1,$8,$9,$2,$3,0*%
G04 Aperture macros list end*
%ADD10RoundRect,0.250000X0.475000X-0.337500X0.475000X0.337500X-0.475000X0.337500X-0.475000X-0.337500X0*%
%ADD11RoundRect,0.237500X-0.237500X0.250000X-0.237500X-0.250000X0.237500X-0.250000X0.237500X0.250000X0*%
%ADD12RoundRect,0.237500X0.237500X-0.250000X0.237500X0.250000X-0.237500X0.250000X-0.237500X-0.250000X0*%
%ADD13C,3.200000*%
%ADD14RoundRect,0.250000X-0.475000X0.337500X-0.475000X-0.337500X0.475000X-0.337500X0.475000X0.337500X0*%
%ADD15R,1.300000X1.550000*%
%ADD16RoundRect,0.150000X-0.825000X-0.150000X0.825000X-0.150000X0.825000X0.150000X-0.825000X0.150000X0*%
%ADD17RoundRect,0.237500X0.250000X0.237500X-0.250000X0.237500X-0.250000X-0.237500X0.250000X-0.237500X0*%
%ADD18RoundRect,0.237500X0.237500X-0.287500X0.237500X0.287500X-0.237500X0.287500X-0.237500X-0.287500X0*%
%ADD19RoundRect,0.150000X-0.875000X-0.150000X0.875000X-0.150000X0.875000X0.150000X-0.875000X0.150000X0*%
%ADD20RoundRect,0.237500X-0.237500X0.287500X-0.237500X-0.287500X0.237500X-0.287500X0.237500X0.287500X0*%
%ADD21RoundRect,0.250000X-0.337500X-0.475000X0.337500X-0.475000X0.337500X0.475000X-0.337500X0.475000X0*%
%ADD22RoundRect,0.237500X-0.250000X-0.237500X0.250000X-0.237500X0.250000X0.237500X-0.250000X0.237500X0*%
G04 APERTURE END LIST*
D10*
X141000000Y-116037500D03*
X141000000Y-113962500D03*
X132000000Y-72387500D03*
X132000000Y-70312500D03*
D11*
X152250000Y-118837500D03*
X152250000Y-120662500D03*
D12*
X132000000Y-65412500D03*
X132000000Y-63587500D03*
D13*
X197000000Y-147000000D03*
D14*
X155000000Y-133712500D03*
X155000000Y-135787500D03*
D15*
X106500000Y-134275000D03*
X106500000Y-142225000D03*
X102000000Y-134275000D03*
X102000000Y-142225000D03*
D10*
X141000000Y-124787500D03*
X141000000Y-122712500D03*
D16*
X158525000Y-142845000D03*
X158525000Y-144115000D03*
X158525000Y-145385000D03*
X158525000Y-146655000D03*
X163475000Y-146655000D03*
X163475000Y-145385000D03*
X163475000Y-144115000D03*
X163475000Y-142845000D03*
D17*
X153412500Y-147250000D03*
X151587500Y-147250000D03*
D18*
X197500000Y-78625000D03*
X197500000Y-76875000D03*
D19*
X142100000Y-134305000D03*
X142100000Y-135575000D03*
X142100000Y-136845000D03*
X142100000Y-138115000D03*
X142100000Y-139385000D03*
X142100000Y-140655000D03*
X142100000Y-141925000D03*
X142100000Y-143195000D03*
X151400000Y-143195000D03*
X151400000Y-141925000D03*
X151400000Y-140655000D03*
X151400000Y-139385000D03*
X151400000Y-138115000D03*
X151400000Y-136845000D03*
X151400000Y-135575000D03*
X151400000Y-134305000D03*
D14*
X152250000Y-114962500D03*
X152250000Y-117037500D03*
D16*
X144025000Y-125095000D03*
X144025000Y-126365000D03*
X144025000Y-127635000D03*
X144025000Y-128905000D03*
X148975000Y-128905000D03*
X148975000Y-127635000D03*
X148975000Y-126365000D03*
X148975000Y-125095000D03*
D13*
X197000000Y-53000000D03*
D20*
X197500000Y-94375000D03*
X197500000Y-96125000D03*
D11*
X155500000Y-145337500D03*
X155500000Y-147162500D03*
D14*
X155500000Y-114962500D03*
X155500000Y-117037500D03*
D21*
X163962500Y-140250000D03*
X166037500Y-140250000D03*
D14*
X152250000Y-123962500D03*
X152250000Y-126037500D03*
D13*
X103000000Y-147000000D03*
D11*
X152250000Y-127837500D03*
X152250000Y-129662500D03*
D22*
X194587500Y-141250000D03*
X196412500Y-141250000D03*
D11*
X166500000Y-142587500D03*
X166500000Y-144412500D03*
D14*
X139250000Y-133212500D03*
X139250000Y-135287500D03*
D20*
X197500000Y-137375000D03*
X197500000Y-139125000D03*
D16*
X144025000Y-116095000D03*
X144025000Y-117365000D03*
X144025000Y-118635000D03*
X144025000Y-119905000D03*
X148975000Y-119905000D03*
X148975000Y-118635000D03*
X148975000Y-117365000D03*
X148975000Y-116095000D03*
D11*
X197500000Y-72837500D03*
X197500000Y-74662500D03*
D14*
X155500000Y-123962500D03*
X155500000Y-126037500D03*
D12*
X197500000Y-100162500D03*
X197500000Y-98337500D03*
D11*
X166500000Y-146337500D03*
X166500000Y-148162500D03*
D13*
X103000001Y-53000001D03*
D12*
X155000000Y-140662500D03*
X155000000Y-138837500D03*
M02*
