G04 #@! TF.GenerationSoftware,KiCad,Pcbnew,8.0.7-8.0.7-0~ubuntu22.04.1*
G04 #@! TF.CreationDate,2025-02-10T08:16:07+09:00*
G04 #@! TF.ProjectId,CoRE2025MainBoard_1,436f5245-3230-4323-954d-61696e426f61,rev?*
G04 #@! TF.SameCoordinates,Original*
G04 #@! TF.FileFunction,Soldermask,Top*
G04 #@! TF.FilePolarity,Negative*
%FSLAX46Y46*%
G04 Gerber Fmt 4.6, Leading zero omitted, Abs format (unit mm)*
G04 Created by KiCad (PCBNEW 8.0.7-8.0.7-0~ubuntu22.04.1) date 2025-02-10 08:16:07*
%MOMM*%
%LPD*%
G01*
G04 APERTURE LIST*
G04 Aperture macros list*
%AMRoundRect*
0 Rectangle with rounded corners*
0 $1 Rounding radius*
0 $2 $3 $4 $5 $6 $7 $8 $9 X,Y pos of 4 corners*
0 Add a 4 corners polygon primitive as box body*
4,1,4,$2,$3,$4,$5,$6,$7,$8,$9,$2,$3,0*
0 Add four circle primitives for the rounded corners*
1,1,$1+$1,$2,$3*
1,1,$1+$1,$4,$5*
1,1,$1+$1,$6,$7*
1,1,$1+$1,$8,$9*
0 Add four rect primitives between the rounded corners*
20,1,$1+$1,$2,$3,$4,$5,0*
20,1,$1+$1,$4,$5,$6,$7,0*
20,1,$1+$1,$6,$7,$8,$9,0*
20,1,$1+$1,$8,$9,$2,$3,0*%
G04 Aperture macros list end*
%ADD10C,2.780000*%
%ADD11R,1.700000X1.700000*%
%ADD12O,1.700000X1.700000*%
%ADD13R,2.400000X2.400000*%
%ADD14C,2.400000*%
%ADD15RoundRect,0.250000X0.475000X-0.337500X0.475000X0.337500X-0.475000X0.337500X-0.475000X-0.337500X0*%
%ADD16RoundRect,0.237500X-0.237500X0.250000X-0.237500X-0.250000X0.237500X-0.250000X0.237500X0.250000X0*%
%ADD17C,2.500000*%
%ADD18C,2.000000*%
%ADD19RoundRect,0.237500X0.237500X-0.250000X0.237500X0.250000X-0.237500X0.250000X-0.237500X-0.250000X0*%
%ADD20C,3.200000*%
%ADD21RoundRect,0.250000X-0.475000X0.337500X-0.475000X-0.337500X0.475000X-0.337500X0.475000X0.337500X0*%
%ADD22C,1.500000*%
%ADD23R,1.300000X1.550000*%
%ADD24RoundRect,0.250000X-0.750000X0.600000X-0.750000X-0.600000X0.750000X-0.600000X0.750000X0.600000X0*%
%ADD25O,2.000000X1.700000*%
%ADD26RoundRect,0.250000X0.600000X0.725000X-0.600000X0.725000X-0.600000X-0.725000X0.600000X-0.725000X0*%
%ADD27O,1.700000X1.950000*%
%ADD28RoundRect,0.150000X-0.825000X-0.150000X0.825000X-0.150000X0.825000X0.150000X-0.825000X0.150000X0*%
%ADD29RoundRect,0.250000X-0.725000X0.600000X-0.725000X-0.600000X0.725000X-0.600000X0.725000X0.600000X0*%
%ADD30O,1.950000X1.700000*%
%ADD31RoundRect,0.250000X0.625000X-0.350000X0.625000X0.350000X-0.625000X0.350000X-0.625000X-0.350000X0*%
%ADD32O,1.750000X1.200000*%
%ADD33RoundRect,0.237500X0.250000X0.237500X-0.250000X0.237500X-0.250000X-0.237500X0.250000X-0.237500X0*%
%ADD34RoundRect,0.250001X1.099999X-1.099999X1.099999X1.099999X-1.099999X1.099999X-1.099999X-1.099999X0*%
%ADD35C,2.700000*%
%ADD36RoundRect,0.237500X0.237500X-0.287500X0.237500X0.287500X-0.237500X0.287500X-0.237500X-0.287500X0*%
%ADD37C,3.250000*%
%ADD38R,1.500000X1.500000*%
%ADD39C,3.000000*%
%ADD40RoundRect,0.150000X-0.875000X-0.150000X0.875000X-0.150000X0.875000X0.150000X-0.875000X0.150000X0*%
%ADD41RoundRect,1.500000X1.500000X1.500000X-1.500000X1.500000X-1.500000X-1.500000X1.500000X-1.500000X0*%
%ADD42C,6.000000*%
%ADD43R,1.600000X2.400000*%
%ADD44O,1.600000X2.400000*%
%ADD45RoundRect,0.237500X-0.237500X0.287500X-0.237500X-0.287500X0.237500X-0.287500X0.237500X0.287500X0*%
%ADD46RoundRect,0.250000X-0.337500X-0.475000X0.337500X-0.475000X0.337500X0.475000X-0.337500X0.475000X0*%
%ADD47RoundRect,0.237500X-0.250000X-0.237500X0.250000X-0.237500X0.250000X0.237500X-0.250000X0.237500X0*%
%ADD48C,1.800000*%
%ADD49RoundRect,0.208333X-3.791667X1.041667X-3.791667X-1.041667X3.791667X-1.041667X3.791667X1.041667X0*%
%ADD50RoundRect,0.208333X-1.041667X3.291667X-1.041667X-3.291667X1.041667X-3.291667X1.041667X3.291667X0*%
%ADD51R,1.050000X1.500000*%
%ADD52O,1.050000X1.500000*%
%ADD53R,1.600000X1.600000*%
%ADD54C,1.600000*%
%ADD55R,1.300000X1.300000*%
%ADD56C,1.300000*%
G04 APERTURE END LIST*
D10*
X173700000Y-53290000D03*
X170300000Y-53290000D03*
X173700000Y-63210000D03*
X170300000Y-63210000D03*
D11*
X138542500Y-93545000D03*
D12*
X138542500Y-96085000D03*
X138542500Y-98625000D03*
X138542500Y-101165000D03*
X138542500Y-103705000D03*
X138542500Y-106245000D03*
X161507500Y-106245000D03*
X161507500Y-103705000D03*
X161507500Y-101165000D03*
X161507500Y-98625000D03*
X161507500Y-96085000D03*
D11*
X161507500Y-93545000D03*
D13*
X193000000Y-104926041D03*
D14*
X193000000Y-109926041D03*
D15*
X141000000Y-116037500D03*
X141000000Y-113962500D03*
X132000000Y-72387500D03*
X132000000Y-70312500D03*
D16*
X152250000Y-118837500D03*
X152250000Y-120662500D03*
D17*
X155890000Y-74750000D03*
X138110000Y-54250000D03*
D18*
X158430000Y-72120000D03*
X158430000Y-61960000D03*
X158430000Y-56880000D03*
X135570000Y-56880000D03*
X135570000Y-61960000D03*
X135570000Y-67040000D03*
X135570000Y-72120000D03*
D19*
X132000000Y-65412500D03*
X132000000Y-63587500D03*
D20*
X197000000Y-147000000D03*
D21*
X155000000Y-133712500D03*
X155000000Y-135787500D03*
D22*
X168000000Y-95750000D03*
X168000000Y-93250000D03*
X168000000Y-90750000D03*
D23*
X106500000Y-134275000D03*
X106500000Y-142225000D03*
X102000000Y-134275000D03*
X102000000Y-142225000D03*
D24*
X105025000Y-90250000D03*
D25*
X105025000Y-92750000D03*
D26*
X116750000Y-54225000D03*
D27*
X114250000Y-54225000D03*
X111750000Y-54225000D03*
X109250000Y-54225000D03*
D26*
X130250000Y-54250000D03*
D27*
X127750000Y-54250000D03*
X125250000Y-54250000D03*
X122750000Y-54250000D03*
D15*
X141000000Y-124787500D03*
X141000000Y-122712500D03*
D28*
X158525000Y-142845000D03*
X158525000Y-144115000D03*
X158525000Y-145385000D03*
X158525000Y-146655000D03*
X163475000Y-146655000D03*
X163475000Y-145385000D03*
X163475000Y-144115000D03*
X163475000Y-142845000D03*
D29*
X168250000Y-102500000D03*
D30*
X168250000Y-105000000D03*
X168250000Y-107500000D03*
D31*
X179750000Y-144500000D03*
D32*
X179750000Y-142500000D03*
X179750000Y-140500000D03*
D33*
X153412500Y-147250000D03*
X151587500Y-147250000D03*
D34*
X187950000Y-144507500D03*
D35*
X187950000Y-140547500D03*
D24*
X168000000Y-69750000D03*
D25*
X168000000Y-72250000D03*
D36*
X197500000Y-78625000D03*
X197500000Y-76875000D03*
D37*
X175715000Y-123555000D03*
X164285000Y-123555000D03*
D38*
X174445000Y-129905000D03*
D22*
X173175000Y-132445000D03*
X171905000Y-129905000D03*
X170635000Y-132445000D03*
X169365000Y-129905000D03*
X168095000Y-132445000D03*
X166825000Y-129905000D03*
X165555000Y-132445000D03*
D39*
X177770000Y-120505000D03*
X162230000Y-120505000D03*
D40*
X142100000Y-134305000D03*
X142100000Y-135575000D03*
X142100000Y-136845000D03*
X142100000Y-138115000D03*
X142100000Y-139385000D03*
X142100000Y-140655000D03*
X142100000Y-141925000D03*
X142100000Y-143195000D03*
X151400000Y-143195000D03*
X151400000Y-141925000D03*
X151400000Y-140655000D03*
X151400000Y-139385000D03*
X151400000Y-138115000D03*
X151400000Y-136845000D03*
X151400000Y-135575000D03*
X151400000Y-134305000D03*
D37*
X195715000Y-123555000D03*
X184285000Y-123555000D03*
D38*
X194445000Y-129905000D03*
D22*
X193175000Y-132445000D03*
X191905000Y-129905000D03*
X190635000Y-132445000D03*
X189365000Y-129905000D03*
X188095000Y-132445000D03*
X186825000Y-129905000D03*
X185555000Y-132445000D03*
D39*
X197770000Y-120505000D03*
X182230000Y-120505000D03*
D21*
X152250000Y-114962500D03*
X152250000Y-117037500D03*
D29*
X105025000Y-108250000D03*
D30*
X105025000Y-110750000D03*
X105025000Y-113250000D03*
X105025000Y-115750000D03*
D41*
X188250000Y-54500000D03*
D42*
X181050000Y-54500000D03*
D28*
X144025000Y-125095000D03*
X144025000Y-126365000D03*
X144025000Y-127635000D03*
X144025000Y-128905000D03*
X148975000Y-128905000D03*
X148975000Y-127635000D03*
X148975000Y-126365000D03*
X148975000Y-125095000D03*
D20*
X197000000Y-53000000D03*
D43*
X125350000Y-62425000D03*
D44*
X122810000Y-62425000D03*
X120270000Y-62425000D03*
X117730000Y-62425000D03*
X115190000Y-62425000D03*
X112650000Y-62425000D03*
X112650000Y-72585000D03*
X115190000Y-72585000D03*
X117730000Y-72585000D03*
X120270000Y-72585000D03*
X122810000Y-72585000D03*
X125350000Y-72585000D03*
D45*
X197500000Y-94375000D03*
X197500000Y-96125000D03*
D16*
X155500000Y-145337500D03*
X155500000Y-147162500D03*
D21*
X155500000Y-114962500D03*
X155500000Y-117037500D03*
D46*
X163962500Y-140250000D03*
X166037500Y-140250000D03*
D21*
X152250000Y-123962500D03*
X152250000Y-126037500D03*
D20*
X103000000Y-147000000D03*
D29*
X105000000Y-122000000D03*
D30*
X105000000Y-124500000D03*
X105000000Y-127000000D03*
X105000000Y-129500000D03*
D16*
X152250000Y-127837500D03*
X152250000Y-129662500D03*
D47*
X194587500Y-141250000D03*
X196412500Y-141250000D03*
D22*
X165600000Y-59500000D03*
X165600000Y-57000000D03*
X165600000Y-54500000D03*
D29*
X168025000Y-79500000D03*
D30*
X168025000Y-82000000D03*
X168025000Y-84500000D03*
D13*
X182000000Y-65750000D03*
D14*
X187000000Y-65750000D03*
D16*
X166500000Y-142587500D03*
X166500000Y-144412500D03*
D18*
X187350000Y-79000000D03*
D48*
X187350000Y-81500000D03*
D49*
X182300000Y-75900000D03*
D48*
X187350000Y-84000000D03*
D50*
X194100000Y-85250000D03*
X176300000Y-85250000D03*
D48*
X187350000Y-86500000D03*
D49*
X182300000Y-97100000D03*
D48*
X187350000Y-89000000D03*
X187350000Y-91500000D03*
D18*
X187350000Y-94000000D03*
D51*
X161270000Y-137640000D03*
D52*
X160000000Y-137640000D03*
X158730000Y-137640000D03*
D38*
X105050000Y-97950000D03*
D22*
X105050000Y-100490000D03*
X105050000Y-103030000D03*
D13*
X179000000Y-104926041D03*
D14*
X179000000Y-109926041D03*
D21*
X139250000Y-133212500D03*
X139250000Y-135287500D03*
D45*
X197500000Y-137375000D03*
X197500000Y-139125000D03*
D28*
X144025000Y-116095000D03*
X144025000Y-117365000D03*
X144025000Y-118635000D03*
X144025000Y-119905000D03*
X148975000Y-119905000D03*
X148975000Y-118635000D03*
X148975000Y-117365000D03*
X148975000Y-116095000D03*
D16*
X197500000Y-72837500D03*
X197500000Y-74662500D03*
D21*
X155500000Y-123962500D03*
X155500000Y-126037500D03*
D31*
X172750000Y-144500000D03*
D32*
X172750000Y-142500000D03*
X172750000Y-140500000D03*
D19*
X197500000Y-100162500D03*
X197500000Y-98337500D03*
D16*
X166500000Y-146337500D03*
X166500000Y-148162500D03*
D20*
X103000001Y-53000001D03*
D19*
X155000000Y-140662500D03*
X155000000Y-138837500D03*
D53*
X128370000Y-138710000D03*
D54*
X128370000Y-136170000D03*
X128370000Y-133630000D03*
X128370000Y-131090000D03*
X128370000Y-128550000D03*
X128370000Y-126010000D03*
X128370000Y-123470000D03*
X128370000Y-120930000D03*
X128370000Y-118390000D03*
X128370000Y-115850000D03*
X128370000Y-113310000D03*
X128370000Y-110770000D03*
X128370000Y-108230000D03*
X128370000Y-105690000D03*
X128370000Y-103150000D03*
X128370000Y-100610000D03*
X128370000Y-98070000D03*
X128370000Y-95530000D03*
X128370000Y-92990000D03*
X128370000Y-90450000D03*
X128370000Y-87910000D03*
X128370000Y-85370000D03*
X128370000Y-82830000D03*
X128370000Y-80290000D03*
X113130000Y-80290000D03*
X113130000Y-82830000D03*
X113130000Y-85370000D03*
X113130000Y-87910000D03*
X113130000Y-90450000D03*
X113130000Y-92990000D03*
X113130000Y-95530000D03*
X113130000Y-98070000D03*
X113130000Y-100610000D03*
X113130000Y-103150000D03*
X113130000Y-105690000D03*
X113130000Y-108230000D03*
X113130000Y-110770000D03*
X113130000Y-113310000D03*
X113130000Y-115850000D03*
X113130000Y-118390000D03*
X113130000Y-120930000D03*
X113130000Y-123470000D03*
X113130000Y-126010000D03*
X113130000Y-128550000D03*
X113130000Y-131090000D03*
X113130000Y-133630000D03*
X113130000Y-136170000D03*
X113130000Y-138710000D03*
X115670000Y-136170000D03*
X125830000Y-92990000D03*
X123290000Y-92990000D03*
X120750000Y-92990000D03*
X118210000Y-92990000D03*
X115670000Y-92990000D03*
D53*
X125319200Y-132410800D03*
D54*
X125319200Y-129870800D03*
X125319200Y-127330800D03*
X125319200Y-124790800D03*
X125319200Y-122250800D03*
D55*
X115568400Y-125740000D03*
D56*
X117568400Y-125740000D03*
X119568400Y-125740000D03*
X119568400Y-123740000D03*
X117568400Y-123740000D03*
X115568400Y-123740000D03*
X119480000Y-137980000D03*
X122020000Y-137980000D03*
M02*
