M48
; DRILL file {KiCad 8.0.7-8.0.7-0~ubuntu22.04.1} date 2025-02-10T08:16:08+0900
; FORMAT={-:-/ absolute / inch / decimal}
; #@! TF.CreationDate,2025-02-10T08:16:08+09:00
; #@! TF.GenerationSoftware,Kicad,Pcbnew,8.0.7-8.0.7-0~ubuntu22.04.1
; #@! TF.FileFunction,Plated,1,2,PTH
FMAT,2
INCH
; #@! TA.AperFunction,Plated,PTH,ViaDrill
T1C0.0118
; #@! TA.AperFunction,Plated,PTH,ComponentDrill
T2C0.0276
; #@! TA.AperFunction,Plated,PTH,ComponentDrill
T3C0.0295
; #@! TA.AperFunction,Plated,PTH,ComponentDrill
T4C0.0315
; #@! TA.AperFunction,Plated,PTH,ComponentDrill
T5C0.0354
; #@! TA.AperFunction,Plated,PTH,ComponentDrill
T6C0.0374
; #@! TA.AperFunction,Plated,PTH,ComponentDrill
T7C0.0394
; #@! TA.AperFunction,Plated,PTH,ComponentDrill
T8C0.0433
; #@! TA.AperFunction,Plated,PTH,ComponentDrill
T9C0.0472
; #@! TA.AperFunction,Plated,PTH,ComponentDrill
T10C0.0591
; #@! TA.AperFunction,Plated,PTH,ComponentDrill
T11C0.0630
; #@! TA.AperFunction,Plated,PTH,ComponentDrill
T12C0.0669
; #@! TA.AperFunction,Plated,PTH,ComponentDrill
T13C0.0701
; #@! TA.AperFunction,Plated,PTH,ComponentDrill
T14C0.0787
; #@! TA.AperFunction,Plated,PTH,ComponentDrill
T15C0.1772
%
G90
G05
T1
X3.9665Y-2.2244
X3.9665Y-2.3327
X3.9665Y-2.5295
X3.9665Y-2.7264
X3.9665Y-2.9232
X3.9665Y-3.0906
X4.0256Y-4.3701
X4.0453Y-4.1634
X4.0748Y-3.7992
X4.0748Y-4.5079
X4.1043Y-3.4646
X4.1142Y-2.2244
X4.1142Y-2.3327
X4.1142Y-2.5295
X4.1142Y-2.7264
X4.1142Y-2.9232
X4.1142Y-3.1201
X4.1142Y-3.3169
X4.1142Y-4.6949
X4.1142Y-5.4823
X4.1831Y-4.3012
X4.1929Y-5.1772
X4.2028Y-1.998
X4.2028Y-3.9764
X4.2028Y-4.2028
X4.2028Y-4.4193
X4.2224Y-4.8524
X4.2618Y-2.9823
X4.2618Y-4.7539
X4.311Y-2.3327
X4.311Y-2.5295
X4.311Y-2.7264
X4.311Y-2.9429
X4.311Y-5.6791
X4.311Y-5.876
X4.3307Y-4.5768
X4.3307Y-5.374
X4.3602Y-2.2146
X4.3799Y-4.7835
X4.3996Y-1.998
X4.4587Y-2.5984
X4.5079Y-5.6791
X4.5079Y-5.876
X4.5177Y-5.2854
X4.5177Y-5.4429
X4.5256Y-3.935
X4.5256Y-4.3051
X4.5256Y-4.502
X4.5256Y-4.7028
X4.5276Y-5.0886
X4.5295Y-4.1043
X4.5374Y-2.2047
X4.5374Y-3.4252
X4.5374Y-3.5728
X4.5472Y-3.2382
X4.5669Y-2.6673
X4.5768Y-2.5394
X4.5866Y-2.372
X4.5866Y-3.0315
X4.5965Y-1.998
X4.6752Y-2.2736
X4.6752Y-3.9567
X4.7047Y-2.1358
X4.7047Y-2.5689
X4.7047Y-2.6772
X4.7047Y-3.0315
X4.7047Y-3.3169
X4.7047Y-3.5138
X4.7047Y-4.1043
X4.7047Y-4.3012
X4.7047Y-4.498
X4.7047Y-4.6949
X4.7047Y-5.0886
X4.7047Y-5.2854
X4.7047Y-5.6791
X4.7047Y-5.876
X4.7736Y-2.372
X4.7933Y-1.998
X4.7933Y-2.5886
X4.8425Y-3.5728
X4.8524Y-3.3268
X4.9016Y-3.1201
X4.9016Y-5.2854
X4.9016Y-5.4823
X4.9016Y-5.6791
X4.9016Y-5.876
X4.9114Y-2.9626
X4.9705Y-4.6909
X4.9744Y-4.5059
X4.9803Y-3.2874
X4.9803Y-3.5728
X4.9823Y-4.1673
X4.9823Y-4.2933
X4.9902Y-1.998
X4.9902Y-2.2933
X4.9902Y-2.5886
X4.9902Y-2.687
X5.0689Y-2.4409
X5.0886Y-2.2047
X5.0886Y-3.0906
X5.0984Y-2.9232
X5.0984Y-5.6791
X5.0984Y-5.876
X5.1083Y-2.6575
X5.128Y-5.4823
X5.187Y-1.998
X5.187Y-2.1949
X5.187Y-2.3917
X5.2224Y-3.2264
X5.2303Y-3.0965
X5.2593Y-3.9829
X5.2608Y-4.0797
X5.2953Y-2.1358
X5.2953Y-2.9232
X5.2953Y-5.5807
X5.2953Y-5.6791
X5.2953Y-5.876
X5.3051Y-5.0295
X5.3051Y-5.1713
X5.3091Y-4.8799
X5.3169Y-4.7185
X5.3445Y-5.3346
X5.3484Y-3.1083
X5.3563Y-3.3051
X5.3642Y-2.939
X5.3839Y-1.998
X5.4134Y-5.3346
X5.4331Y-4.7244
X5.4331Y-4.8819
X5.435Y-5.0295
X5.4823Y-4.5669
X5.4823Y-4.9213
X5.4902Y-3.4902
X5.4921Y-5.5807
X5.4921Y-5.6791
X5.4921Y-5.876
X5.5217Y-4.9606
X5.5413Y-4.2815
X5.5413Y-4.3996
X5.5413Y-4.7343
X5.5512Y-5.1476
X5.5709Y-4.975
X5.5906Y-5.025
X5.6043Y-3.5965
X5.6693Y-5.1575
X5.6791Y-4.8524
X5.689Y-3.7106
X5.689Y-3.9075
X5.689Y-4.1043
X5.689Y-4.3012
X5.689Y-4.498
X5.689Y-5.2854
X5.689Y-5.4823
X5.689Y-5.6791
X5.689Y-5.876
X5.8465Y-5.128
X5.8465Y-5.2854
X5.8465Y-5.4823
X5.8465Y-5.6791
X5.8465Y-5.876
X5.8583Y-4.5118
X5.9291Y-4.4252
X5.935Y-4.6161
X5.935Y-4.9705
X5.9744Y-5.2067
X6.0335Y-5.3876
X6.0335Y-5.4376
X6.0433Y-5.876
X6.0531Y-4.6063
X6.0531Y-4.9606
X6.1122Y-5.1083
X6.1122Y-5.1969
X6.1663Y-4.5522
X6.1713Y-4.8804
X6.1713Y-5.2643
X6.1713Y-5.7238
X6.2303Y-4.9232
X6.2303Y-5.2067
X6.2402Y-5.0984
X6.2402Y-5.876
X6.2421Y-4.6201
X6.3012Y-4.9902
X6.315Y-4.4331
X6.3563Y-5.1043
X6.378Y-5.315
X6.4154Y-4.5492
X6.437Y-5.2362
X6.437Y-5.876
X6.4567Y-5.4429
X6.4646Y-2.1811
X6.4646Y-2.3071
X6.4665Y-1.998
X6.4724Y-2.4488
X6.4724Y-3.8425
X6.4724Y-4.2756
X6.4744Y-5.1673
X6.4803Y-2.5512
X6.4803Y-2.6378
X6.4803Y-2.7638
X6.4803Y-2.9449
X6.4803Y-3.063
X6.4803Y-3.252
X6.4803Y-3.4488
X6.4803Y-3.6457
X6.4803Y-4.063
X6.5059Y-5.7238
X6.5118Y-5.3602
X6.5571Y-4.4075
X6.6043Y-4.3307
X6.6043Y-4.5472
X6.6142Y-4.8228
X6.6339Y-5.876
X6.6437Y-2.9331
X6.6437Y-3.4646
X6.6634Y-2.313
X6.6634Y-5.3445
X6.6634Y-5.5413
X6.6634Y-5.7382
X6.7028Y-2.7461
X6.7028Y-3.1201
X6.7323Y-3.6024
X6.7618Y-3.7303
X6.7815Y-4.0354
X6.7815Y-4.8917
X6.811Y-3.2677
X6.8209Y-2.9331
X6.8307Y-2.313
X6.8307Y-5.876
X6.8602Y-2.7559
X6.8602Y-4.3602
X6.8602Y-4.5571
X6.8602Y-5.3445
X6.8602Y-5.7382
X6.8898Y-3.6024
X6.8898Y-5.4843
X6.9587Y-5.6988
X6.9685Y-3.7303
X6.9783Y-3.1201
X7.0118Y-5.4823
X7.0177Y-2.8642
X7.0276Y-5.876
X7.0571Y-1.998
X7.0571Y-2.313
X7.0571Y-4.5571
X7.0571Y-5.1476
X7.0571Y-5.3445
X7.0571Y-5.7382
X7.0768Y-3.4449
X7.1161Y-3.5728
X7.1457Y-2.7264
X7.189Y-5.7126
X7.2028Y-5.498
X7.2047Y-4.0354
X7.2244Y-5.876
X7.2343Y-2.313
X7.2343Y-2.4705
X7.2539Y-1.998
X7.2539Y-4.3602
X7.2539Y-4.5571
X7.2539Y-5.1476
X7.2539Y-5.3445
X7.2539Y-5.7382
X7.2736Y-3.5728
X7.2736Y-4.7539
X7.2835Y-3.4449
X7.2933Y-3.1004
X7.3031Y-2.874
X7.313Y-3.9272
X7.4213Y-5.876
X7.4508Y-1.998
X7.4508Y-2.3917
X7.4508Y-2.5886
X7.4508Y-4.3602
X7.4508Y-4.5571
X7.4508Y-4.7539
X7.4508Y-5.3445
X7.4606Y-3.4843
X7.4705Y-2.7854
X7.4705Y-3.2579
X7.4803Y-5.502
X7.4902Y-5.6693
X7.6181Y-5.876
X7.6457Y-5.5
X7.6476Y-2.1949
X7.6476Y-2.3917
X7.6476Y-2.5886
X7.6476Y-2.7854
X7.6476Y-2.9823
X7.6476Y-3.1791
X7.6476Y-3.5728
X7.6476Y-3.7697
X7.6476Y-3.9665
X7.6476Y-4.5571
X7.6476Y-4.7539
X7.6476Y-4.9508
X7.6476Y-5.3445
X7.6476Y-5.6594
X7.8445Y-2.3917
X7.8445Y-2.5886
X7.8445Y-2.7854
X7.8445Y-2.9823
X7.8445Y-3.1791
X7.8445Y-3.376
X7.8445Y-3.5728
X7.8445Y-3.7697
X7.8445Y-3.9665
X7.8445Y-4.1634
X7.8445Y-4.3602
X7.8445Y-4.5571
X7.8445Y-4.9508
X7.8445Y-5.1476
X7.8445Y-5.3445
X7.8445Y-5.6496
X7.8504Y-5.5079
T2
X6.5197Y-2.1457
X6.5197Y-2.2441
X6.5197Y-2.3425
X6.6142Y-3.5728
X6.6142Y-3.6713
X6.6142Y-3.7697
T3
X6.2492Y-5.4189
X6.2992Y-5.4189
X6.3492Y-5.4189
X6.8012Y-5.5315
X6.8012Y-5.6102
X6.8012Y-5.689
X7.0768Y-5.5315
X7.0768Y-5.6102
X7.0768Y-5.689
T4
X4.1358Y-3.8563
X4.1358Y-3.9563
X4.1358Y-4.0563
X4.435Y-2.4577
X4.435Y-2.8577
X4.535Y-2.4577
X4.535Y-2.8577
X4.5499Y-4.8717
X4.5499Y-4.9504
X4.6287Y-4.8717
X4.6287Y-4.9504
X4.635Y-2.4577
X4.635Y-2.8577
X4.7039Y-5.4323
X4.7074Y-4.8717
X4.7074Y-4.9504
X4.735Y-2.4577
X4.735Y-2.8577
X4.8039Y-5.4323
X4.835Y-2.4577
X4.835Y-2.8577
X4.935Y-2.4577
X4.935Y-2.8577
T5
X6.5179Y-5.2144
X6.5679Y-5.1144
X6.6179Y-5.2144
X6.6679Y-5.1144
X6.7179Y-5.2144
X6.7679Y-5.1144
X6.8179Y-5.2144
X6.8679Y-5.1144
X7.3053Y-5.2144
X7.3553Y-5.1144
X7.376Y-3.2087
X7.376Y-3.3071
X7.376Y-3.4055
X7.376Y-3.5039
X7.376Y-3.6024
X7.4053Y-5.2144
X7.4553Y-5.1144
X7.5053Y-5.2144
X7.5553Y-5.1144
X7.6053Y-5.2144
X7.6553Y-5.1144
T6
X4.1339Y-4.8031
X4.1339Y-4.9016
X4.1339Y-5.0
X4.1339Y-5.0984
X4.1348Y-4.2618
X4.1348Y-4.3602
X4.1348Y-4.4587
X4.1348Y-4.5571
X4.3012Y-2.1348
X4.3996Y-2.1348
X4.498Y-2.1348
X4.5965Y-2.1348
X4.8327Y-2.1358
X4.9311Y-2.1358
X5.0295Y-2.1358
X5.128Y-2.1358
X6.6152Y-3.1299
X6.6152Y-3.2283
X6.6152Y-3.3268
X6.624Y-4.0354
X6.624Y-4.1339
X6.624Y-4.2323
T7
X4.1348Y-3.5531
X4.1348Y-3.6516
X5.3374Y-2.2394
X5.3374Y-2.4394
X5.3374Y-2.6394
X5.3374Y-2.8394
X5.4544Y-3.6829
X5.4544Y-3.7829
X5.4544Y-3.8829
X5.4544Y-3.9829
X5.4544Y-4.0829
X5.4544Y-4.1829
X6.2374Y-2.2394
X6.2374Y-2.4394
X6.2374Y-2.8394
X6.3586Y-3.6829
X6.3586Y-3.7829
X6.3586Y-3.8829
X6.3586Y-3.9829
X6.3586Y-4.0829
X6.3586Y-4.1829
X6.6142Y-2.7461
X6.6142Y-2.8445
T8
X4.4539Y-3.161
X4.4539Y-3.261
X4.4539Y-3.361
X4.4539Y-3.461
X4.4539Y-3.561
X4.4539Y-3.661
X4.4539Y-3.761
X4.4539Y-3.861
X4.4539Y-3.961
X4.4539Y-4.061
X4.4539Y-4.161
X4.4539Y-4.261
X4.4539Y-4.361
X4.4539Y-4.461
X4.4539Y-4.561
X4.4539Y-4.661
X4.4539Y-4.761
X4.4539Y-4.861
X4.4539Y-4.961
X4.4539Y-5.061
X4.4539Y-5.161
X4.4539Y-5.261
X4.4539Y-5.361
X4.4539Y-5.461
X4.5539Y-3.661
X4.5539Y-5.361
X4.6539Y-3.661
X4.7539Y-3.661
X4.8539Y-3.661
X4.9338Y-4.813
X4.9338Y-4.913
X4.9338Y-5.013
X4.9338Y-5.113
X4.9338Y-5.213
X4.9539Y-3.661
X5.0539Y-3.161
X5.0539Y-3.261
X5.0539Y-3.361
X5.0539Y-3.461
X5.0539Y-3.561
X5.0539Y-3.661
X5.0539Y-3.761
X5.0539Y-3.861
X5.0539Y-3.961
X5.0539Y-4.061
X5.0539Y-4.161
X5.0539Y-4.261
X5.0539Y-4.361
X5.0539Y-4.461
X5.0539Y-4.561
X5.0539Y-4.661
X5.0539Y-4.761
X5.0539Y-4.861
X5.0539Y-4.961
X5.0539Y-5.061
X5.0539Y-5.161
X5.0539Y-5.261
X5.0539Y-5.361
X5.0539Y-5.461
X7.376Y-3.1102
X7.376Y-3.7008
T9
X7.0472Y-4.1309
X7.0472Y-4.3278
X7.1654Y-2.5886
X7.3622Y-2.5886
X7.5984Y-4.1309
X7.5984Y-4.3278
T10
X5.4374Y-2.1358
X6.1374Y-2.9429
T11
X6.387Y-4.7443
X6.9988Y-4.7443
X7.1744Y-4.7443
X7.7862Y-4.7443
T12
X7.3996Y-5.5334
X7.3996Y-5.6893
T13
X6.7047Y-2.098
X6.7047Y-2.4886
X6.8386Y-2.098
X6.8386Y-2.4886
T14
X6.9409Y-3.3563
X7.6417Y-3.3563
T15
X7.128Y-2.1457
X7.4114Y-2.1457
T12
G00X7.2244Y-2.9882
M15
G01X7.1299Y-2.9882
M16
G05
G00X7.2244Y-3.8228
M15
G01X7.1299Y-3.8228
M16
G05
M30
