G04 #@! TF.GenerationSoftware,KiCad,Pcbnew,8.0.7-8.0.7-0~ubuntu22.04.1*
G04 #@! TF.CreationDate,2025-02-10T08:50:06+09:00*
G04 #@! TF.ProjectId,CANExpander_1,43414e45-7870-4616-9e64-65725f312e6b,rev?*
G04 #@! TF.SameCoordinates,Original*
G04 #@! TF.FileFunction,Copper,L1,Top*
G04 #@! TF.FilePolarity,Positive*
%FSLAX46Y46*%
G04 Gerber Fmt 4.6, Leading zero omitted, Abs format (unit mm)*
G04 Created by KiCad (PCBNEW 8.0.7-8.0.7-0~ubuntu22.04.1) date 2025-02-10 08:50:06*
%MOMM*%
%LPD*%
G01*
G04 APERTURE LIST*
G04 Aperture macros list*
%AMRoundRect*
0 Rectangle with rounded corners*
0 $1 Rounding radius*
0 $2 $3 $4 $5 $6 $7 $8 $9 X,Y pos of 4 corners*
0 Add a 4 corners polygon primitive as box body*
4,1,4,$2,$3,$4,$5,$6,$7,$8,$9,$2,$3,0*
0 Add four circle primitives for the rounded corners*
1,1,$1+$1,$2,$3*
1,1,$1+$1,$4,$5*
1,1,$1+$1,$6,$7*
1,1,$1+$1,$8,$9*
0 Add four rect primitives between the rounded corners*
20,1,$1+$1,$2,$3,$4,$5,0*
20,1,$1+$1,$4,$5,$6,$7,0*
20,1,$1+$1,$6,$7,$8,$9,0*
20,1,$1+$1,$8,$9,$2,$3,0*%
G04 Aperture macros list end*
G04 #@! TA.AperFunction,ComponentPad*
%ADD10R,2.000000X2.000000*%
G04 #@! TD*
G04 #@! TA.AperFunction,ComponentPad*
%ADD11C,2.000000*%
G04 #@! TD*
G04 #@! TA.AperFunction,ComponentPad*
%ADD12C,1.524003*%
G04 #@! TD*
G04 #@! TA.AperFunction,ComponentPad*
%ADD13C,2.700000*%
G04 #@! TD*
G04 #@! TA.AperFunction,ComponentPad*
%ADD14RoundRect,1.500000X-1.500000X1.500000X-1.500000X-1.500000X1.500000X-1.500000X1.500000X1.500000X0*%
G04 #@! TD*
G04 #@! TA.AperFunction,ComponentPad*
%ADD15C,6.000000*%
G04 #@! TD*
G04 #@! TA.AperFunction,SMDPad,CuDef*
%ADD16RoundRect,0.237500X0.237500X-0.250000X0.237500X0.250000X-0.237500X0.250000X-0.237500X-0.250000X0*%
G04 #@! TD*
G04 #@! TA.AperFunction,ComponentPad*
%ADD17R,1.500000X1.500000*%
G04 #@! TD*
G04 #@! TA.AperFunction,ComponentPad*
%ADD18C,1.500000*%
G04 #@! TD*
G04 #@! TA.AperFunction,ComponentPad*
%ADD19C,3.000000*%
G04 #@! TD*
G04 #@! TA.AperFunction,ComponentPad*
%ADD20C,2.780000*%
G04 #@! TD*
G04 #@! TA.AperFunction,SMDPad,CuDef*
%ADD21RoundRect,0.237500X-0.237500X0.287500X-0.237500X-0.287500X0.237500X-0.287500X0.237500X0.287500X0*%
G04 #@! TD*
G04 #@! TA.AperFunction,ViaPad*
%ADD22C,0.600000*%
G04 #@! TD*
G04 #@! TA.AperFunction,Conductor*
%ADD23C,0.400000*%
G04 #@! TD*
G04 APERTURE END LIST*
D10*
X144500000Y-58382323D03*
D11*
X144500000Y-63382323D03*
D12*
X167174994Y-79750000D03*
X167174994Y-81750000D03*
D13*
X163325108Y-80750000D03*
X158325108Y-80750000D03*
D12*
X167174994Y-68250000D03*
X167174994Y-70250000D03*
D13*
X163325108Y-69250000D03*
X158325108Y-69250000D03*
D14*
X144500000Y-82650000D03*
D15*
X144500000Y-89850000D03*
D16*
X131000000Y-83762500D03*
X131000000Y-81937500D03*
D17*
X179845000Y-69195000D03*
D18*
X177305000Y-67925000D03*
X179845000Y-66655000D03*
X177305000Y-65385000D03*
X179845000Y-64115000D03*
X177305000Y-62845000D03*
X179845000Y-61575000D03*
X177305000Y-60305000D03*
D19*
X189245000Y-72520000D03*
X189245000Y-56980000D03*
D10*
X144500000Y-69632323D03*
D11*
X144500000Y-74632323D03*
D20*
X133900000Y-85210000D03*
X137300000Y-85210000D03*
X133900000Y-75290000D03*
X137300000Y-75290000D03*
D17*
X179845000Y-89640000D03*
D18*
X177305000Y-88370000D03*
X179845000Y-87100000D03*
X177305000Y-85830000D03*
X179845000Y-84560000D03*
X177305000Y-83290000D03*
X179845000Y-82020000D03*
X177305000Y-80750000D03*
D19*
X189245000Y-92965000D03*
X189245000Y-77425000D03*
D10*
X135250000Y-63882323D03*
D11*
X135250000Y-68882323D03*
D21*
X131000000Y-76900000D03*
X131000000Y-78650000D03*
D12*
X167174994Y-91250000D03*
X167174994Y-93250000D03*
D13*
X163325108Y-92250000D03*
X158325108Y-92250000D03*
D12*
X167174994Y-56750000D03*
X167174994Y-58750000D03*
D13*
X163325108Y-57750000D03*
X158325108Y-57750000D03*
D22*
X133200000Y-88650000D03*
X138500000Y-94250000D03*
X135000000Y-83650000D03*
X139500000Y-83750000D03*
X135200000Y-87050000D03*
X143000000Y-86750000D03*
X143000000Y-94250000D03*
X140500000Y-94250000D03*
X138500000Y-91750000D03*
X130500000Y-85850000D03*
X148000000Y-94250000D03*
X133200000Y-87000000D03*
X130500000Y-83650000D03*
X145500000Y-94250000D03*
X140000000Y-86250000D03*
X145800000Y-86750000D03*
X148000000Y-86750000D03*
X135500000Y-89250000D03*
X148000000Y-89250000D03*
X130500000Y-88500000D03*
X140500000Y-91750000D03*
X136500000Y-94250000D03*
X136500000Y-91750000D03*
X148000000Y-91750000D03*
X138000000Y-89250000D03*
X140500000Y-89250000D03*
X137800000Y-86850000D03*
D23*
X179835000Y-89650000D02*
X168706995Y-89650000D01*
X168336995Y-70750000D02*
X168336995Y-81250000D01*
X168706995Y-89650000D02*
X168706995Y-89570000D01*
X168336995Y-59912001D02*
X168336995Y-68750000D01*
X168750000Y-69336995D02*
X168336995Y-69750000D01*
X168336995Y-69250000D02*
X168336995Y-69750000D01*
X167836995Y-81750000D02*
X168336995Y-81250000D01*
X168336995Y-69750000D02*
X168336995Y-70250000D01*
X168750000Y-69250000D02*
X168750000Y-69163005D01*
X168336995Y-81750000D02*
X168336995Y-82250000D01*
X168336995Y-90113005D02*
X168336995Y-90250000D01*
X168706995Y-89650000D02*
X168706995Y-89743005D01*
X168750000Y-69250000D02*
X168336995Y-69250000D01*
X167174994Y-70250000D02*
X168336995Y-70250000D01*
X167174994Y-70250000D02*
X167836995Y-70250000D01*
X168336995Y-70250000D02*
X168336995Y-70750000D01*
X168336995Y-90000000D02*
X168336995Y-90250000D01*
X167174994Y-81750000D02*
X168336995Y-81750000D01*
X168750000Y-69163005D02*
X168336995Y-68750000D01*
X167836995Y-70250000D02*
X168336995Y-69750000D01*
X179845000Y-89640000D02*
X179835000Y-89650000D01*
X168336995Y-90250000D02*
X168336995Y-92087999D01*
X179845000Y-69195000D02*
X179790000Y-69250000D01*
X168336995Y-81250000D02*
X168336995Y-81750000D01*
X168336995Y-68750000D02*
X168336995Y-69250000D01*
X168750000Y-69250000D02*
X168750000Y-69336995D01*
X168336995Y-82250000D02*
X168336995Y-89250000D01*
X168336995Y-92087999D02*
X167174994Y-93250000D01*
X168706995Y-89743005D02*
X168336995Y-90113005D01*
X168336995Y-89250000D02*
X168336995Y-90000000D01*
X179790000Y-69250000D02*
X168750000Y-69250000D01*
X167174994Y-58750000D02*
X168336995Y-59912001D01*
X167836995Y-81750000D02*
X168336995Y-82250000D01*
X167174994Y-81750000D02*
X167836995Y-81750000D01*
X167836995Y-70250000D02*
X168336995Y-70750000D01*
X168706995Y-89570000D02*
X168336995Y-89200000D01*
X131000000Y-78650000D02*
X131000000Y-81937500D01*
G04 #@! TA.AperFunction,Conductor*
G36*
X166193039Y-55220185D02*
G01*
X166238794Y-55272989D01*
X166250000Y-55324500D01*
X166250000Y-55838185D01*
X166230315Y-55905224D01*
X166213681Y-55925866D01*
X166204168Y-55935378D01*
X166204163Y-55935384D01*
X166077461Y-56116333D01*
X166077459Y-56116337D01*
X165984100Y-56316546D01*
X165926923Y-56529929D01*
X165926922Y-56529936D01*
X165907670Y-56749997D01*
X165907670Y-56750002D01*
X165918694Y-56876016D01*
X165926923Y-56970069D01*
X165980632Y-57170513D01*
X165984100Y-57183453D01*
X166077459Y-57383662D01*
X166077461Y-57383666D01*
X166204163Y-57564615D01*
X166204168Y-57564621D01*
X166213681Y-57574134D01*
X166247166Y-57635457D01*
X166250000Y-57661815D01*
X166250000Y-57838185D01*
X166230315Y-57905224D01*
X166213681Y-57925866D01*
X166204168Y-57935378D01*
X166204163Y-57935384D01*
X166077461Y-58116333D01*
X166077459Y-58116337D01*
X165984100Y-58316546D01*
X165926923Y-58529929D01*
X165926922Y-58529936D01*
X165907670Y-58749997D01*
X165907670Y-58750002D01*
X165914839Y-58831953D01*
X165926923Y-58970069D01*
X165975150Y-59150054D01*
X165984100Y-59183453D01*
X166077459Y-59383662D01*
X166077461Y-59383666D01*
X166204163Y-59564615D01*
X166204168Y-59564621D01*
X166213681Y-59574134D01*
X166247166Y-59635457D01*
X166250000Y-59661815D01*
X166250000Y-67338185D01*
X166230315Y-67405224D01*
X166213681Y-67425866D01*
X166204168Y-67435378D01*
X166204163Y-67435384D01*
X166077461Y-67616333D01*
X166077459Y-67616337D01*
X165984100Y-67816546D01*
X165926923Y-68029929D01*
X165926922Y-68029936D01*
X165907670Y-68249997D01*
X165907670Y-68250002D01*
X165926922Y-68470063D01*
X165926923Y-68470070D01*
X165984100Y-68683453D01*
X166077459Y-68883662D01*
X166077461Y-68883666D01*
X166204163Y-69064615D01*
X166204168Y-69064621D01*
X166213681Y-69074134D01*
X166247166Y-69135457D01*
X166250000Y-69161815D01*
X166250000Y-69338185D01*
X166230315Y-69405224D01*
X166213681Y-69425866D01*
X166204168Y-69435378D01*
X166204163Y-69435384D01*
X166077461Y-69616333D01*
X166077459Y-69616337D01*
X165984100Y-69816546D01*
X165926923Y-70029929D01*
X165926922Y-70029936D01*
X165907670Y-70249997D01*
X165907670Y-70250002D01*
X165926922Y-70470063D01*
X165926923Y-70470070D01*
X165984100Y-70683453D01*
X166077459Y-70883662D01*
X166077461Y-70883666D01*
X166204163Y-71064615D01*
X166204168Y-71064621D01*
X166213681Y-71074134D01*
X166247166Y-71135457D01*
X166250000Y-71161815D01*
X166250000Y-78838185D01*
X166230315Y-78905224D01*
X166213681Y-78925866D01*
X166204168Y-78935378D01*
X166204163Y-78935384D01*
X166077461Y-79116333D01*
X166077459Y-79116337D01*
X165984100Y-79316546D01*
X165926923Y-79529929D01*
X165926922Y-79529936D01*
X165907670Y-79749997D01*
X165907670Y-79750002D01*
X165926922Y-79970063D01*
X165926923Y-79970070D01*
X165984100Y-80183453D01*
X166077459Y-80383662D01*
X166077461Y-80383666D01*
X166204163Y-80564615D01*
X166204168Y-80564621D01*
X166213681Y-80574134D01*
X166247166Y-80635457D01*
X166250000Y-80661815D01*
X166250000Y-80838185D01*
X166230315Y-80905224D01*
X166213681Y-80925866D01*
X166204168Y-80935378D01*
X166204163Y-80935384D01*
X166077461Y-81116333D01*
X166077459Y-81116337D01*
X165984100Y-81316546D01*
X165926923Y-81529929D01*
X165926922Y-81529936D01*
X165907670Y-81749997D01*
X165907670Y-81750002D01*
X165926922Y-81970063D01*
X165926923Y-81970070D01*
X165984100Y-82183453D01*
X166077459Y-82383662D01*
X166077461Y-82383666D01*
X166204163Y-82564615D01*
X166204168Y-82564621D01*
X166213681Y-82574134D01*
X166247166Y-82635457D01*
X166250000Y-82661815D01*
X166250000Y-90338185D01*
X166230315Y-90405224D01*
X166213681Y-90425866D01*
X166204168Y-90435378D01*
X166204163Y-90435384D01*
X166077461Y-90616333D01*
X166077459Y-90616337D01*
X165984100Y-90816546D01*
X165926923Y-91029929D01*
X165926922Y-91029936D01*
X165907670Y-91249997D01*
X165907670Y-91250002D01*
X165926922Y-91470063D01*
X165926923Y-91470070D01*
X165984100Y-91683453D01*
X166077459Y-91883662D01*
X166077461Y-91883666D01*
X166204163Y-92064615D01*
X166204168Y-92064621D01*
X166213681Y-92074134D01*
X166247166Y-92135457D01*
X166250000Y-92161815D01*
X166250000Y-92338185D01*
X166230315Y-92405224D01*
X166213681Y-92425866D01*
X166204168Y-92435378D01*
X166204163Y-92435384D01*
X166077461Y-92616333D01*
X166077459Y-92616337D01*
X165984100Y-92816546D01*
X165926923Y-93029929D01*
X165926922Y-93029936D01*
X165907670Y-93249997D01*
X165907670Y-93250002D01*
X165926922Y-93470063D01*
X165926923Y-93470070D01*
X165984100Y-93683453D01*
X166077459Y-93883662D01*
X166077461Y-93883666D01*
X166204163Y-94064615D01*
X166204168Y-94064621D01*
X166213681Y-94074134D01*
X166247166Y-94135457D01*
X166250000Y-94161815D01*
X166250000Y-94675500D01*
X166230315Y-94742539D01*
X166177511Y-94788294D01*
X166126000Y-94799500D01*
X149367789Y-94799500D01*
X149300750Y-94779815D01*
X149254995Y-94727011D01*
X149244386Y-94663347D01*
X149255500Y-94550497D01*
X149255500Y-92249998D01*
X161469881Y-92249998D01*
X161469881Y-92250001D01*
X161488765Y-92514027D01*
X161488766Y-92514034D01*
X161545029Y-92772673D01*
X161637534Y-93020690D01*
X161637536Y-93020694D01*
X161764388Y-93253005D01*
X161764393Y-93253013D01*
X161923014Y-93464907D01*
X161923030Y-93464925D01*
X162110182Y-93652077D01*
X162110200Y-93652093D01*
X162322094Y-93810714D01*
X162322102Y-93810719D01*
X162554413Y-93937571D01*
X162554417Y-93937573D01*
X162554419Y-93937574D01*
X162802430Y-94030077D01*
X162802433Y-94030077D01*
X162802434Y-94030078D01*
X162961199Y-94064615D01*
X163061082Y-94086343D01*
X163304768Y-94103772D01*
X163325107Y-94105227D01*
X163325108Y-94105227D01*
X163325109Y-94105227D01*
X163343993Y-94103876D01*
X163589134Y-94086343D01*
X163847786Y-94030077D01*
X164095797Y-93937574D01*
X164328119Y-93810716D01*
X164540023Y-93652087D01*
X164727195Y-93464915D01*
X164885824Y-93253011D01*
X165012682Y-93020689D01*
X165105185Y-92772678D01*
X165161451Y-92514026D01*
X165180335Y-92250000D01*
X165161451Y-91985974D01*
X165105185Y-91727322D01*
X165012682Y-91479311D01*
X165007635Y-91470069D01*
X164885827Y-91246994D01*
X164885822Y-91246986D01*
X164727201Y-91035092D01*
X164727185Y-91035074D01*
X164540033Y-90847922D01*
X164540015Y-90847906D01*
X164328121Y-90689285D01*
X164328113Y-90689280D01*
X164095802Y-90562428D01*
X164095798Y-90562426D01*
X163847781Y-90469921D01*
X163589142Y-90413658D01*
X163589135Y-90413657D01*
X163325109Y-90394773D01*
X163325107Y-90394773D01*
X163061080Y-90413657D01*
X163061073Y-90413658D01*
X162802434Y-90469921D01*
X162554417Y-90562426D01*
X162554413Y-90562428D01*
X162322102Y-90689280D01*
X162322094Y-90689285D01*
X162110200Y-90847906D01*
X162110182Y-90847922D01*
X161923030Y-91035074D01*
X161923014Y-91035092D01*
X161764393Y-91246986D01*
X161764388Y-91246994D01*
X161637536Y-91479305D01*
X161637534Y-91479309D01*
X161545029Y-91727326D01*
X161488766Y-91985965D01*
X161488765Y-91985972D01*
X161469881Y-92249998D01*
X149255500Y-92249998D01*
X149255500Y-86649003D01*
X149240984Y-86501618D01*
X149240983Y-86501616D01*
X149240983Y-86501609D01*
X149222029Y-86406321D01*
X149189088Y-86290165D01*
X149109224Y-86133983D01*
X149055248Y-86053201D01*
X149055245Y-86053198D01*
X149055243Y-86053194D01*
X149055237Y-86053186D01*
X148980359Y-85958488D01*
X148980356Y-85958485D01*
X148980353Y-85958481D01*
X148846799Y-85844752D01*
X148846798Y-85844751D01*
X148766023Y-85790779D01*
X148730085Y-85770722D01*
X148660589Y-85731935D01*
X148585852Y-85707771D01*
X148528121Y-85668418D01*
X148500829Y-85604099D01*
X148500000Y-85589785D01*
X148500000Y-81250000D01*
X148055554Y-80749998D01*
X161469881Y-80749998D01*
X161469881Y-80750001D01*
X161488765Y-81014027D01*
X161488766Y-81014034D01*
X161545029Y-81272673D01*
X161637534Y-81520690D01*
X161637536Y-81520694D01*
X161764388Y-81753005D01*
X161764393Y-81753013D01*
X161923014Y-81964907D01*
X161923030Y-81964925D01*
X162110182Y-82152077D01*
X162110200Y-82152093D01*
X162322094Y-82310714D01*
X162322102Y-82310719D01*
X162554413Y-82437571D01*
X162554417Y-82437573D01*
X162554419Y-82437574D01*
X162802430Y-82530077D01*
X162802433Y-82530077D01*
X162802434Y-82530078D01*
X162961199Y-82564615D01*
X163061082Y-82586343D01*
X163304768Y-82603772D01*
X163325107Y-82605227D01*
X163325108Y-82605227D01*
X163325109Y-82605227D01*
X163343993Y-82603876D01*
X163589134Y-82586343D01*
X163847786Y-82530077D01*
X164095797Y-82437574D01*
X164328119Y-82310716D01*
X164540023Y-82152087D01*
X164727195Y-81964915D01*
X164885824Y-81753011D01*
X165012682Y-81520689D01*
X165105185Y-81272678D01*
X165161451Y-81014026D01*
X165180335Y-80750000D01*
X165161451Y-80485974D01*
X165105185Y-80227322D01*
X165012682Y-79979311D01*
X165007635Y-79970069D01*
X164885827Y-79746994D01*
X164885822Y-79746986D01*
X164727201Y-79535092D01*
X164727185Y-79535074D01*
X164540033Y-79347922D01*
X164540015Y-79347906D01*
X164328121Y-79189285D01*
X164328113Y-79189280D01*
X164095802Y-79062428D01*
X164095798Y-79062426D01*
X163847781Y-78969921D01*
X163589142Y-78913658D01*
X163589135Y-78913657D01*
X163325109Y-78894773D01*
X163325107Y-78894773D01*
X163061080Y-78913657D01*
X163061073Y-78913658D01*
X162802434Y-78969921D01*
X162554417Y-79062426D01*
X162554413Y-79062428D01*
X162322102Y-79189280D01*
X162322094Y-79189285D01*
X162110200Y-79347906D01*
X162110182Y-79347922D01*
X161923030Y-79535074D01*
X161923014Y-79535092D01*
X161764393Y-79746986D01*
X161764388Y-79746994D01*
X161637536Y-79979305D01*
X161637534Y-79979309D01*
X161545029Y-80227326D01*
X161488766Y-80485965D01*
X161488765Y-80485972D01*
X161469881Y-80749998D01*
X148055554Y-80749998D01*
X147950491Y-80631802D01*
X147926669Y-80588822D01*
X147925916Y-80589104D01*
X147924370Y-80584959D01*
X147924369Y-80584954D01*
X147824367Y-80316839D01*
X147751532Y-80183453D01*
X147687229Y-80065690D01*
X147687224Y-80065682D01*
X147515745Y-79836612D01*
X147515729Y-79836594D01*
X147313405Y-79634270D01*
X147313387Y-79634254D01*
X147084317Y-79462775D01*
X147084309Y-79462770D01*
X146833166Y-79325635D01*
X146833154Y-79325630D01*
X146796644Y-79312012D01*
X146747300Y-79278212D01*
X146500000Y-79000000D01*
X146499999Y-79000000D01*
X138801362Y-79000000D01*
X138734323Y-78980315D01*
X138713681Y-78963681D01*
X137500000Y-77750000D01*
X131685431Y-77750000D01*
X131620335Y-77731539D01*
X131551522Y-77689095D01*
X131551517Y-77689093D01*
X131551516Y-77689092D01*
X131387753Y-77634826D01*
X131387751Y-77634825D01*
X131286678Y-77624500D01*
X130713330Y-77624500D01*
X130713312Y-77624501D01*
X130612247Y-77634825D01*
X130448484Y-77689092D01*
X130448479Y-77689094D01*
X130389595Y-77725414D01*
X130322203Y-77743853D01*
X130255539Y-77722929D01*
X130210771Y-77669287D01*
X130200500Y-77619874D01*
X130200500Y-74632317D01*
X142994357Y-74632317D01*
X142994357Y-74632328D01*
X143014890Y-74880135D01*
X143014892Y-74880147D01*
X143075936Y-75121204D01*
X143175826Y-75348929D01*
X143311833Y-75557105D01*
X143311836Y-75557108D01*
X143480256Y-75740061D01*
X143676491Y-75892797D01*
X143895190Y-76011151D01*
X144130386Y-76091894D01*
X144375665Y-76132823D01*
X144624335Y-76132823D01*
X144869614Y-76091894D01*
X145104810Y-76011151D01*
X145323509Y-75892797D01*
X145519744Y-75740061D01*
X145688164Y-75557108D01*
X145824173Y-75348930D01*
X145924063Y-75121204D01*
X145985108Y-74880144D01*
X146005643Y-74632323D01*
X145985108Y-74384502D01*
X145924063Y-74143442D01*
X145824173Y-73915716D01*
X145688166Y-73707540D01*
X145666557Y-73684067D01*
X145519744Y-73524585D01*
X145323509Y-73371849D01*
X145323507Y-73371848D01*
X145323506Y-73371847D01*
X145104811Y-73253495D01*
X145104802Y-73253492D01*
X144869616Y-73172752D01*
X144624335Y-73131823D01*
X144375665Y-73131823D01*
X144130383Y-73172752D01*
X143895197Y-73253492D01*
X143895188Y-73253495D01*
X143676493Y-73371847D01*
X143480257Y-73524584D01*
X143311833Y-73707540D01*
X143175826Y-73915716D01*
X143075936Y-74143441D01*
X143014892Y-74384498D01*
X143014890Y-74384510D01*
X142994357Y-74632317D01*
X130200500Y-74632317D01*
X130200500Y-68882317D01*
X133744357Y-68882317D01*
X133744357Y-68882328D01*
X133764890Y-69130135D01*
X133764892Y-69130147D01*
X133825936Y-69371204D01*
X133925826Y-69598929D01*
X134061833Y-69807105D01*
X134061836Y-69807108D01*
X134230256Y-69990061D01*
X134426491Y-70142797D01*
X134426493Y-70142798D01*
X134630148Y-70253011D01*
X134645190Y-70261151D01*
X134880386Y-70341894D01*
X135125665Y-70382823D01*
X135374335Y-70382823D01*
X135619614Y-70341894D01*
X135854810Y-70261151D01*
X136073509Y-70142797D01*
X136269744Y-69990061D01*
X136438164Y-69807108D01*
X136574173Y-69598930D01*
X136674063Y-69371204D01*
X136704757Y-69249998D01*
X161469881Y-69249998D01*
X161469881Y-69250001D01*
X161488765Y-69514027D01*
X161488766Y-69514034D01*
X161545029Y-69772673D01*
X161637534Y-70020690D01*
X161637536Y-70020694D01*
X161764388Y-70253005D01*
X161764393Y-70253013D01*
X161923014Y-70464907D01*
X161923030Y-70464925D01*
X162110182Y-70652077D01*
X162110200Y-70652093D01*
X162322094Y-70810714D01*
X162322102Y-70810719D01*
X162554413Y-70937571D01*
X162554417Y-70937573D01*
X162554419Y-70937574D01*
X162802430Y-71030077D01*
X162802433Y-71030077D01*
X162802434Y-71030078D01*
X162961199Y-71064615D01*
X163061082Y-71086343D01*
X163304768Y-71103772D01*
X163325107Y-71105227D01*
X163325108Y-71105227D01*
X163325109Y-71105227D01*
X163343993Y-71103876D01*
X163589134Y-71086343D01*
X163847786Y-71030077D01*
X164095797Y-70937574D01*
X164328119Y-70810716D01*
X164540023Y-70652087D01*
X164727195Y-70464915D01*
X164885824Y-70253011D01*
X165012682Y-70020689D01*
X165105185Y-69772678D01*
X165161451Y-69514026D01*
X165180335Y-69250000D01*
X165161451Y-68985974D01*
X165105185Y-68727322D01*
X165012682Y-68479311D01*
X165007635Y-68470069D01*
X164885827Y-68246994D01*
X164885822Y-68246986D01*
X164727201Y-68035092D01*
X164727185Y-68035074D01*
X164540033Y-67847922D01*
X164540015Y-67847906D01*
X164328121Y-67689285D01*
X164328113Y-67689280D01*
X164095802Y-67562428D01*
X164095798Y-67562426D01*
X163847781Y-67469921D01*
X163589142Y-67413658D01*
X163589135Y-67413657D01*
X163325109Y-67394773D01*
X163325107Y-67394773D01*
X163061080Y-67413657D01*
X163061073Y-67413658D01*
X162802434Y-67469921D01*
X162554417Y-67562426D01*
X162554413Y-67562428D01*
X162322102Y-67689280D01*
X162322094Y-67689285D01*
X162110200Y-67847906D01*
X162110182Y-67847922D01*
X161923030Y-68035074D01*
X161923014Y-68035092D01*
X161764393Y-68246986D01*
X161764388Y-68246994D01*
X161637536Y-68479305D01*
X161637534Y-68479309D01*
X161545029Y-68727326D01*
X161488766Y-68985965D01*
X161488765Y-68985972D01*
X161469881Y-69249998D01*
X136704757Y-69249998D01*
X136735108Y-69130144D01*
X136739749Y-69074134D01*
X136755643Y-68882328D01*
X136755643Y-68882317D01*
X136735109Y-68634510D01*
X136735107Y-68634498D01*
X136674063Y-68393441D01*
X136574173Y-68165716D01*
X136438166Y-67957540D01*
X136337247Y-67847913D01*
X136269744Y-67774585D01*
X136073509Y-67621849D01*
X136073507Y-67621848D01*
X136073506Y-67621847D01*
X135854811Y-67503495D01*
X135854802Y-67503492D01*
X135619616Y-67422752D01*
X135374335Y-67381823D01*
X135125665Y-67381823D01*
X134880383Y-67422752D01*
X134645197Y-67503492D01*
X134645188Y-67503495D01*
X134426493Y-67621847D01*
X134230257Y-67774584D01*
X134061833Y-67957540D01*
X133925826Y-68165716D01*
X133825936Y-68393441D01*
X133764892Y-68634498D01*
X133764890Y-68634510D01*
X133744357Y-68882317D01*
X130200500Y-68882317D01*
X130200500Y-63382317D01*
X142994357Y-63382317D01*
X142994357Y-63382328D01*
X143014890Y-63630135D01*
X143014892Y-63630147D01*
X143075936Y-63871204D01*
X143175826Y-64098929D01*
X143311833Y-64307105D01*
X143311836Y-64307108D01*
X143480256Y-64490061D01*
X143676491Y-64642797D01*
X143895190Y-64761151D01*
X144130386Y-64841894D01*
X144375665Y-64882823D01*
X144624335Y-64882823D01*
X144869614Y-64841894D01*
X145104810Y-64761151D01*
X145323509Y-64642797D01*
X145519744Y-64490061D01*
X145688164Y-64307108D01*
X145824173Y-64098930D01*
X145924063Y-63871204D01*
X145985108Y-63630144D01*
X146005643Y-63382323D01*
X145985108Y-63134502D01*
X145924063Y-62893442D01*
X145824173Y-62665716D01*
X145688166Y-62457540D01*
X145666557Y-62434067D01*
X145519744Y-62274585D01*
X145323509Y-62121849D01*
X145323507Y-62121848D01*
X145323506Y-62121847D01*
X145104811Y-62003495D01*
X145104802Y-62003492D01*
X144869616Y-61922752D01*
X144624335Y-61881823D01*
X144375665Y-61881823D01*
X144130383Y-61922752D01*
X143895197Y-62003492D01*
X143895188Y-62003495D01*
X143676493Y-62121847D01*
X143480257Y-62274584D01*
X143311833Y-62457540D01*
X143175826Y-62665716D01*
X143075936Y-62893441D01*
X143014892Y-63134498D01*
X143014890Y-63134510D01*
X142994357Y-63382317D01*
X130200500Y-63382317D01*
X130200500Y-61124000D01*
X130220185Y-61056961D01*
X130272989Y-61011206D01*
X130324500Y-61000000D01*
X132820095Y-61000000D01*
X132828014Y-61000444D01*
X132828022Y-61000305D01*
X132831495Y-61000500D01*
X132831496Y-61000500D01*
X133168507Y-61000500D01*
X133168507Y-61000499D01*
X133503394Y-60962767D01*
X133831954Y-60887776D01*
X134150051Y-60776469D01*
X134453686Y-60630246D01*
X134739039Y-60450946D01*
X135002523Y-60240825D01*
X135240825Y-60002523D01*
X135450946Y-59739039D01*
X135630246Y-59453686D01*
X135776469Y-59150051D01*
X135887776Y-58831954D01*
X135962767Y-58503394D01*
X136000500Y-58168504D01*
X136000500Y-57831496D01*
X136000500Y-57831495D01*
X136000305Y-57828022D01*
X136000444Y-57828014D01*
X136000000Y-57820095D01*
X136000000Y-57749998D01*
X161469881Y-57749998D01*
X161469881Y-57750001D01*
X161488765Y-58014027D01*
X161488766Y-58014034D01*
X161545029Y-58272673D01*
X161637534Y-58520690D01*
X161637536Y-58520694D01*
X161764388Y-58753005D01*
X161764393Y-58753013D01*
X161923014Y-58964907D01*
X161923030Y-58964925D01*
X162110182Y-59152077D01*
X162110200Y-59152093D01*
X162322094Y-59310714D01*
X162322102Y-59310719D01*
X162554413Y-59437571D01*
X162554417Y-59437573D01*
X162554419Y-59437574D01*
X162802430Y-59530077D01*
X162802433Y-59530077D01*
X162802434Y-59530078D01*
X162961199Y-59564615D01*
X163061082Y-59586343D01*
X163304768Y-59603772D01*
X163325107Y-59605227D01*
X163325108Y-59605227D01*
X163325109Y-59605227D01*
X163343993Y-59603876D01*
X163589134Y-59586343D01*
X163847786Y-59530077D01*
X164095797Y-59437574D01*
X164328119Y-59310716D01*
X164540023Y-59152087D01*
X164727195Y-58964915D01*
X164885824Y-58753011D01*
X165012682Y-58520689D01*
X165105185Y-58272678D01*
X165161451Y-58014026D01*
X165180335Y-57750000D01*
X165161451Y-57485974D01*
X165105185Y-57227322D01*
X165012682Y-56979311D01*
X165007635Y-56970069D01*
X164885827Y-56746994D01*
X164885822Y-56746986D01*
X164727201Y-56535092D01*
X164727185Y-56535074D01*
X164540033Y-56347922D01*
X164540015Y-56347906D01*
X164328121Y-56189285D01*
X164328113Y-56189280D01*
X164095802Y-56062428D01*
X164095798Y-56062426D01*
X163847781Y-55969921D01*
X163589142Y-55913658D01*
X163589135Y-55913657D01*
X163325109Y-55894773D01*
X163325107Y-55894773D01*
X163061080Y-55913657D01*
X163061073Y-55913658D01*
X162802434Y-55969921D01*
X162554417Y-56062426D01*
X162554413Y-56062428D01*
X162322102Y-56189280D01*
X162322094Y-56189285D01*
X162110200Y-56347906D01*
X162110182Y-56347922D01*
X161923030Y-56535074D01*
X161923014Y-56535092D01*
X161764393Y-56746986D01*
X161764388Y-56746994D01*
X161637536Y-56979305D01*
X161637534Y-56979309D01*
X161545029Y-57227326D01*
X161488766Y-57485965D01*
X161488765Y-57485972D01*
X161469881Y-57749998D01*
X136000000Y-57749998D01*
X136000000Y-55324500D01*
X136019685Y-55257461D01*
X136072489Y-55211706D01*
X136124000Y-55200500D01*
X166126000Y-55200500D01*
X166193039Y-55220185D01*
G37*
G04 #@! TD.AperFunction*
G04 #@! TA.AperFunction,Conductor*
G36*
X139710249Y-83268954D02*
G01*
X139791031Y-83322930D01*
X139823655Y-83363177D01*
X140967247Y-85120404D01*
X140982620Y-85147628D01*
X141040396Y-85266870D01*
X141206745Y-85518095D01*
X141270629Y-85591146D01*
X141291883Y-85619236D01*
X141800000Y-86400000D01*
X142898159Y-86400000D01*
X142912712Y-86400425D01*
X142913979Y-86400500D01*
X146086020Y-86400499D01*
X146087270Y-86400425D01*
X146101822Y-86400000D01*
X148251000Y-86400000D01*
X148346288Y-86418954D01*
X148427070Y-86472930D01*
X148481046Y-86553712D01*
X148500000Y-86649000D01*
X148500000Y-94550500D01*
X148481046Y-94645788D01*
X148427070Y-94726570D01*
X148346288Y-94780546D01*
X148251000Y-94799500D01*
X136249000Y-94799500D01*
X136153712Y-94780546D01*
X136072930Y-94726570D01*
X136018954Y-94645788D01*
X136000000Y-94550500D01*
X136000000Y-92184389D01*
X136000392Y-92170419D01*
X136000500Y-92168497D01*
X136000500Y-91831497D01*
X136000391Y-91829556D01*
X136000000Y-91815602D01*
X136000000Y-91784471D01*
X135991701Y-91753416D01*
X135962767Y-91496606D01*
X135962765Y-91496596D01*
X135887779Y-91168056D01*
X135887777Y-91168052D01*
X135887776Y-91168046D01*
X135776469Y-90849949D01*
X135630246Y-90546314D01*
X135450946Y-90260961D01*
X135240825Y-89997477D01*
X135002523Y-89759175D01*
X134739039Y-89549054D01*
X134739040Y-89549054D01*
X134739038Y-89549053D01*
X134453696Y-89369760D01*
X134453692Y-89369758D01*
X134453686Y-89369754D01*
X134453676Y-89369749D01*
X134453672Y-89369747D01*
X134150045Y-89223528D01*
X133929729Y-89146437D01*
X133831954Y-89112224D01*
X133831950Y-89112223D01*
X133831943Y-89112220D01*
X133503397Y-89037233D01*
X133168516Y-88999500D01*
X133168504Y-88999500D01*
X132831496Y-88999500D01*
X132831491Y-88999500D01*
X132829559Y-88999609D01*
X132815603Y-89000000D01*
X130449500Y-89000000D01*
X130354212Y-88981046D01*
X130273430Y-88927070D01*
X130219454Y-88846288D01*
X130200500Y-88751000D01*
X130200500Y-83499000D01*
X130219454Y-83403712D01*
X130273430Y-83322930D01*
X130354212Y-83268954D01*
X130449500Y-83250000D01*
X139614961Y-83250000D01*
X139710249Y-83268954D01*
G37*
G04 #@! TD.AperFunction*
M02*
