M48
; DRILL file {KiCad 8.0.7-8.0.7-0~ubuntu22.04.1} date 2025-02-10T08:50:07+0900
; FORMAT={-:-/ absolute / inch / decimal}
; #@! TF.CreationDate,2025-02-10T08:50:07+09:00
; #@! TF.GenerationSoftware,Kicad,Pcbnew,8.0.7-8.0.7-0~ubuntu22.04.1
; #@! TF.FileFunction,Plated,1,2,PTH
FMAT,2
INCH
; #@! TA.AperFunction,Plated,PTH,ViaDrill
T1C0.0118
; #@! TA.AperFunction,Plated,PTH,ComponentDrill
T2C0.0354
; #@! TA.AperFunction,Plated,PTH,ComponentDrill
T3C0.0360
; #@! TA.AperFunction,Plated,PTH,ComponentDrill
T4C0.0394
; #@! TA.AperFunction,Plated,PTH,ComponentDrill
T5C0.0630
; #@! TA.AperFunction,Plated,PTH,ComponentDrill
T6C0.0701
; #@! TA.AperFunction,Plated,PTH,ComponentDrill
T7C0.0748
; #@! TA.AperFunction,Plated,PTH,ComponentDrill
T8C0.1772
%
G90
G05
T1
X5.1378Y-3.2933
X5.1378Y-3.3799
X5.1378Y-3.4843
X5.2441Y-3.4252
X5.2441Y-3.4902
X5.315Y-3.2933
X5.3228Y-3.4272
X5.3346Y-3.5138
X5.374Y-3.6122
X5.374Y-3.7106
X5.4252Y-3.4193
X5.4331Y-3.5138
X5.4528Y-3.6122
X5.4528Y-3.7106
X5.4921Y-3.2972
X5.5118Y-3.3957
X5.5315Y-3.5138
X5.5315Y-3.6122
X5.5315Y-3.7106
X5.6299Y-3.4154
X5.6299Y-3.7106
X5.7283Y-3.7106
X5.7402Y-3.4154
X5.8268Y-3.4154
X5.8268Y-3.5138
X5.8268Y-3.6122
X5.8268Y-3.7106
T2
X6.9805Y-2.3742
X6.9805Y-2.4742
X6.9805Y-2.5742
X6.9805Y-2.6742
X6.9805Y-3.1791
X6.9805Y-3.2791
X6.9805Y-3.3791
X6.9805Y-3.4791
X7.0805Y-2.4242
X7.0805Y-2.5242
X7.0805Y-2.6242
X7.0805Y-2.7242
X7.0805Y-3.2291
X7.0805Y-3.3291
X7.0805Y-3.4291
X7.0805Y-3.5291
T3
X6.5817Y-2.2343
X6.5817Y-2.313
X6.5817Y-2.687
X6.5817Y-2.7657
X6.5817Y-3.1398
X6.5817Y-3.2185
X6.5817Y-3.5925
X6.5817Y-3.6713
T4
X5.3248Y-2.5151
X5.3248Y-2.7119
X5.689Y-2.2985
X5.689Y-2.4954
X5.689Y-2.7414
X5.689Y-2.9383
T5
X7.4506Y-2.2433
X7.4506Y-2.8551
X7.4506Y-3.0482
X7.4506Y-3.66
T6
X5.2717Y-2.9642
X5.2717Y-3.3547
X5.4055Y-2.9642
X5.4055Y-3.3547
T7
X6.2333Y-2.2736
X6.2333Y-2.7264
X6.2333Y-3.1791
X6.2333Y-3.6319
X6.4301Y-2.2736
X6.4301Y-2.7264
X6.4301Y-3.1791
X6.4301Y-3.6319
T8
X5.689Y-3.2539
X5.689Y-3.5374
M30
